PathFileType	4	(X/Y/Z)	Kaydara																																																																																																																																																																																																																												
DataRate	CameraRate	NumFrames	NumMarkers	Units	OrigDataRate	OrigDataStartFrame	OrigNumFrames																																																																																																																																																																																																																								
60	60	4	74	mm	60	1666	181																																																																																																																																																																																																																								
Frame#	Time	N_lasi			N_rasi			N_rpsi			N_lpsi			N_fneck			N_bneck			N_fhead			N_rhead			N_lhead			N_rshld			N_relbtop			N_relbext			N_relblow			N_rwrext			N_rwrtop			N_rwrlow			N_lshld			N_lelblow			N_lelbtop			N_lwrext			N_lwrtop			N_lwrlow			N_rtopleg			N_ltopleg			N_rkneefr			N_rkneebk			N_rkneeis			N_lkneefr			N_lknssbk			N_lkneeis			N_rankfr			N_rankis			N_rankbk			N_lankfr			N_lankbk			N_lankis			D_lasi			D_rasi			D_lpsi			D_fneck			D_bneck			D_fhead			D_rhead			D_lhead			D_rshld			D_relbtop			D_relbext			D_relblow			D_rwrext			D_rwrtop			D_rwrlow			D_lshld			D_lelbext			D_lelblow			D_lelbtop			D_lwrext			D_lwrtop			D_lwrlow			D_rtopleg			D_ltopleg			D_rkneefr			D_rkneebk			D_rkneeis			D_lkneefr			D_lknssbk			D_lkneeis			D_rankfr			D_rankis			D_rankbk			D_lankfr			D_lankbk			D_lankis			D_rpsi			N_lelbext		
		X1	Y1	Z1	X2	Y2	Z2	X3	Y3	Z3	X4	Y4	Z4	X5	Y5	Z5	X6	Y6	Z6	X7	Y7	Z7	X8	Y8	Z8	X9	Y9	Z9	X10	Y10	Z10	X11	Y11	Z11	X12	Y12	Z12	X13	Y13	Z13	X14	Y14	Z14	X15	Y15	Z15	X16	Y16	Z16	X17	Y17	Z17	X18	Y18	Z18	X19	Y19	Z19	X20	Y20	Z20	X21	Y21	Z21	X22	Y22	Z22	X23	Y23	Z23	X24	Y24	Z24	X25	Y25	Z25	X26	Y26	Z26	X27	Y27	Z27	X28	Y28	Z28	X29	Y29	Z29	X30	Y30	Z30	X31	Y31	Z31	X32	Y32	Z32	X33	Y33	Z33	X34	Y34	Z34	X35	Y35	Z35	X36	Y36	Z36	X37	Y37	Z37	X38	Y38	Z38	X39	Y39	Z39	X40	Y40	Z40	X41	Y41	Z41	X42	Y42	Z42	X43	Y43	Z43	X44	Y44	Z44	X45	Y45	Z45	X46	Y46	Z46	X47	Y47	Z47	X48	Y48	Z48	X49	Y49	Z49	X50	Y50	Z50	X51	Y51	Z51	X52	Y52	Z52	X53	Y53	Z53	X54	Y54	Z54	X55	Y55	Z55	X56	Y56	Z56	X57	Y57	Z57	X58	Y58	Z58	X59	Y59	Z59	X60	Y60	Z60	X61	Y61	Z61	X62	Y62	Z62	X63	Y63	Z63	X64	Y64	Z64	X65	Y65	Z65	X66	Y66	Z66	X67	Y67	Z67	X68	Y68	Z68	X69	Y69	Z69	X70	Y70	Z70	X71	Y71	Z71	X72	Y72	Z72	X73	Y73	Z73	X74	Y74	Z74
																																																																																																																																																																																																																															
46	27.75	-528.59196	1238.88008	-87.14618	-504.55711	1259.05121	-317.12267	-239.40424	1229.91051	-357.68497	-269.02082	1223.39584	-6.78875	-399.02082	1613.39584	-185.78875	-236.05801	1665.94589	-191.56223	-426.76785	1810.01556	-203.56531	-235.77044	1768.24966	-257.51015	-287.80632	1778.32703	-109.87088	-244.13898	1650.22095	-358.03459	-290.30954	1672.24625	-628.97236	-376.19049	1669.45862	-603.61481	-303.56775	1735.54367	-564.53465	-445.26512	1963.33481	-764.80644	-408.10268	1991.51932	-752.86728	-400.30457	1989.89334	-705.18799	-265.3487	1618.12149	3.81602	-293.93044	1609.73053	272.08906	-242.1381	1542.19559	289.00175	-389.88384	1649.45709	565.97824	-431.66386	1670.61035	560.99236	-453.86162	1622.84592	544.90562	-401.44238	1055.29572	-447.86037	-371.97002	1015.79926	43.09206	-428.18718	562.81586	-263.9883	-320.48409	578.88786	-329.77417	-369.69643	565.68943	-168.43521	-381.48705	540.18448	-103.36759	-256.00706	556.22887	-42.80417	-255.91053	547.32449	-192.29486	-295.0246	139.63781	-272.82253	-298.52047	154.29095	-192.87121	-216.31798	141.49526	-216.28649	-332.65041	192.8083	-120.14729	-260.74678	185.90506	-77.82236	-296.74678	164.90506	-161.82236	-456.99757	1037.57339	1741.05484	-421.87527	1056.27007	1454.73618	-258.25659	1131.58745	1742.96036	-422.43633	1569.24393	1592.00974	-281.43972	1588.67416	1599.2453	-432.91725	1796.25244	1596.74393	-283.84539	1720.74875	1518.8446	-291.87996	1718.28751	1673.00522	-335.48203	1552.28485	1420.54596	-385.05665	1420.08133	1126.01891	-433.73852	1447.71484	1183.31436	-339.18041	1478.02063	1178.84613	-477.78461	1680.98969	1113.84163	-421.39572	1697.91489	1108.30261	-417.28638	1688.91052	1162.23465	-326.91402	1553.74802	1796.76819	-391.94981	1423.84613	2049.2598	-315.54232	1496.95374	2044.28848	-312.30341	1416.83182	2050.18692	-345.0845	1457.85553	2304.04434	-376.4325	1488.60016	2298.42514	-417.55169	1462.47559	2281.49811	-329.80301	1004.68079	1407.0462	-315.8782	1010.03006	1807.57416	-374.85283	455.40997	1449.60052	-275.04658	490.59288	1421.10291	-282.46325	458.4478	1542.16446	-358.24242	448.4753	1770.75455	-245.56889	485.83046	1785.86151	-317.83068	443.80165	1678.80539	-324.15352	130.07397	1417.71042	-294.91501	126.54826	1482.33017	-243.82118	127.77035	1417.6001	-323.30566	134.97889	1792.14523	-250.42957	124.87942	1806.01563	-294.12788	123.96525	1732.74445	-231.71133	1145.87425	1525.65552	-328.9682	1515.29663	284.10969
47	27.767	-528.74603	1238.92456	-87.23871	-504.73316	1259.24782	-317.24331	-239.84268	1230.16586	-358.2061	-268.68641	1223.31688	-6.83385	-398.68641	1613.31688	-185.83385	-236.19717	1666.43066	-192.72884	-427.30583	1810.05356	-203.60376	-236.53416	1768.75214	-258.44967	-287.66434	1778.07129	-110.82293	-244.16348	1650.38513	-358.00472	-292.10287	1674.93942	-628.43861	-377.65636	1673.2695	-601.28487	-303.42228	1737.51938	-562.40761	-442.94079	1974.46198	-750.7209	-404.32098	2000.96741	-739.51645	-394.60529	1997.58057	-692.26212	-266.50858	1619.21417	2.73788	-298.43338	1609.53323	272.07119	-244.41597	1543.47748	287.53408	-383.20557	1637.24136	572.26746	-426.53595	1656.39694	569.91112	-447.53792	1608.09036	553.56556	-401.70448	1055.61218	-447.94746	-371.65562	1015.96466	43.09576	-428.15468	562.83009	-263.95864	-320.47386	578.90278	-329.81113	-369.40559	565.65228	-168.52552	-381.29208	540.19695	-103.31551	-255.56808	556.26263	-42.96088	-255.78966	547.30145	-192.40963	-295.0507	139.6376	-272.79739	-298.52741	154.31786	-192.88294	-216.32423	141.48471	-216.32055	-332.54604	192.85206	-120.08234	-260.50879	185.94679	-77.85331	-296.50879	164.94679	-161.85331	-456.81568	1037.47787	1741.26312	-422.43168	1056.3279	1454.88617	-258.29428	1131.67992	1742.6828	-421.99421	1569.48608	1591.79306	-280.96447	1588.56842	1599.0506	-432.18193	1796.27213	1596.49933	-283.22596	1720.88989	1518.48526	-291.3789	1718.2695	1673.08426	-335.16033	1554.55917	1422.18826	-387.47551	1428.47641	1127.23221	-436.06636	1458.37311	1183.28186	-340.55573	1485.97885	1179.41513	-472.8368	1695.45258	1120.49095	-415.90656	1710.21881	1114.72389	-411.2429	1699.84238	1168.46573	-326.33541	1555.31189	1795.35721	-392.9715	1431.95526	2050.32318	-315.43324	1504.11591	2043.60306	-313.48679	1423.93661	2050.96268	-342.57584	1470.23468	2304.39362	-374.75471	1500.17166	2298.45139	-415.54287	1473.02582	2282.95319	-330.40569	1004.63562	1407.07458	-315.61008	1010.06363	1807.62115	-374.77718	455.40043	1449.62006	-274.97845	490.64568	1421.07452	-282.14916	458.53893	1542.27875	-358.09872	448.47736	1770.73517	-245.40852	485.83733	1785.78003	-317.72381	443.81001	1678.76678	-324.12666	130.09117	1417.6358	-294.8847	126.57828	1482.3555	-243.78229	127.79725	1417.54715	-323.24459	135.00612	1792.21802	-250.35877	124.89351	1806.04538	-294.09729	123.98644	1732.74429	-232.19997	1146.1113	1525.68542	-330.51651	1513.59512	282.78986
48	27.783	-529.06235	1239.01848	-87.36546	-504.87442	1259.40514	-317.4045	-240.25072	1230.47943	-358.68065	-268.61511	1223.43735	-7.0018	-398.61511	1613.43735	-186.0018	-236.76882	1666.65741	-193.78914	-427.87689	1810.06088	-203.59955	-237.46077	1769.17694	-259.38652	-287.56239	1777.92892	-111.70832	-244.49614	1650.6749	-357.81174	-293.75849	1677.27646	-627.8743	-379.1589	1677.13242	-598.60733	-303.11836	1739.36249	-560.28202	-439.61739	1985.08087	-736.44814	-399.62078	2009.9324	-726.37146	-387.78812	2004.73114	-679.64172	-267.79997	1620.47958	1.74519	-303.00884	1609.07227	272.06705	-247.117	1544.04297	286.23301	-377.11296	1624.46564	578.69316	-420.44682	1641.96533	578.17692	-439.40411	1592.92252	561.99528	-401.8721	1055.8609	-447.90943	-371.42735	1016.22154	43.14924	-428.11703	562.81673	-263.82883	-320.49702	578.908	-329.80244	-369.28894	565.63984	-168.47635	-381.02917	540.18337	-103.12706	-255.12058	556.30581	-43.12371	-255.7156	547.27509	-192.53361	-295.07765	139.62019	-272.79446	-298.48036	154.29749	-192.8599	-216.32557	141.47465	-216.34928	-332.47364	192.89616	-120.00083	-260.31786	186.00143	-77.89603	-296.31786	165.00143	-161.89603	-456.73569	1037.70874	1741.83243	-423.21663	1056.34003	1455.46616	-258.07032	1131.87416	1742.5119	-421.70784	1569.7023	1591.60858	-280.38511	1588.55591	1599.31519	-431.51161	1796.30585	1596.29211	-282.48468	1720.98984	1518.62442	-290.90117	1718.30566	1673.09448	-334.83078	1556.604	1423.78632	-389.27872	1435.12177	1130.06737	-437.63908	1467.63351	1183.90053	-341.61697	1492.89474	1180.46799	-468.32893	1707.73895	1126.8222	-410.98579	1720.52231	1120.41199	-405.89729	1708.95096	1173.85361	-325.48817	1556.67191	1793.97263	-394.14886	1439.05899	2051.23123	-315.60741	1510.47424	2042.89612	-314.47365	1430.68497	2051.41891	-340.43243	1480.50995	2304.44534	-372.6609	1510.18372	2298.30734	-413.42316	1482.26013	2283.48206	-331.17065	1004.64401	1407.14859	-315.27575	1010.12154	1807.59827	-374.75689	455.38277	1449.72412	-274.98703	490.68363	1421.12213	-281.89022	458.59711	1542.32986	-357.93736	448.50132	1770.84793	-245.21656	485.79433	1785.63293	-317.67515	443.80085	1678.86124	-324.07852	130.12338	1417.63153	-294.83566	126.57692	1482.35397	-243.77594	127.80166	1417.53891	-323.18241	135.02469	1792.24243	-250.23886	124.90454	1806.04645	-294.09224	123.99427	1732.77771	-232.75784	1145.9008	1525.13306	-333.04012	1512.15347	281.50442
49	27.8	-529.39259	1239.17946	-87.54611	-504.98566	1259.52568	-317.66123	-240.68644	1230.90599	-359.20715	-268.58883	1223.7645	-7.30464	-398.58883	1613.7645	-186.30464	-237.15946	1667.00745	-194.57529	-428.48171	1810.12878	-203.64216	-238.2403	1769.50378	-260.28692	-287.80685	1777.75909	-112.37757	-244.65874	1650.92117	-357.53048	-295.6374	1679.57214	-626.90418	-380.68386	1681.11511	-595.7719	-302.60216	1741.22971	-558.05809	-434.73961	1995.24445	-722.83791	-393.56678	2018.4433	-713.44421	-380.30231	2011.33774	-667.4334	-269.02826	1621.17233	1.26722	-306.90817	1608.31253	272.29141	-249.91919	1543.82919	285.17853	-367.96837	1614.05853	583.5553	-413.14606	1628.46008	585.56583	-429.58569	1578.62946	569.53365	-401.79855	1056.06575	-447.72919	-371.07281	1016.58928	43.08234	-428.13934	562.82757	-263.65755	-320.54863	578.91178	-329.73579	-369.2207	565.69042	-168.36609	-380.78079	540.19405	-102.96798	-254.73295	556.27678	-43.22355	-255.70072	547.23515	-192.63208	-295.19367	139.66528	-272.82591	-298.52285	154.32099	-192.8075	-216.27398	141.49048	-216.41993	-332.38869	192.9491	-119.87588	-260.06079	186.02125	-77.99799	-296.06079	165.02125	-161.99799	-456.42467	1037.6667	1742.06024	-423.87703	1056.31927	1455.74707	-258.01001	1131.90659	1742.32208	-421.2804	1569.95468	1591.51886	-279.80818	1588.57117	1599.62204	-431.01128	1796.35468	1596.29532	-281.68076	1721.08231	1518.96332	-290.43285	1718.23242	1673.17825	-334.48704	1558.53104	1425.39551	-390.87543	1440.84122	1133.3783	-438.60714	1475.51804	1185.27199	-342.36835	1498.91678	1181.60362	-464.50039	1718.07983	1132.20169	-406.73229	1729.20349	1125.51979	-401.45969	1716.71097	1178.59581	-325.37056	1558.08594	1792.83371	-395.36781	1445.58243	2051.86157	-315.85442	1516.16455	2042.02606	-315.46764	1436.57074	2051.7186	-337.72438	1489.09149	2304.34235	-370.39829	1518.72009	2298.66058	-410.81047	1490.15335	2284.42978	-331.92699	1004.66942	1407.30484	-314.9411	1010.06325	1807.46109	-374.76158	455.35774	1449.81064	-274.99912	490.71465	1421.16852	-281.70856	458.62339	1542.33917	-357.8006	448.50842	1770.91553	-245.01692	485.75714	1785.45944	-317.65141	443.79818	1678.87482	-324.08028	130.13092	1417.66647	-294.83	126.5736	1482.3584	-243.77131	127.80665	1417.53387	-323.11386	135.05692	1792.3114	-250.19682	124.88149	1806.00601	-294.11356	123.97766	1732.79465	-233.3803	1146.17737	1524.67438	-335.54253	1510.8429	280.42715
